# xmcd CD database file
#
# Track frame offsets:
#	187
#	19825
#	39480
#	55140
#
# Disc length: 958 seconds
#
# Revision: 3
# Processed by: cddbd v1.5.2PL0 Copyright (c) Steve Scherf et al.
# Submitted via: CDex 1.70beta2
#
DISCID=2a03bc04
DTITLE=L-R - "LAND OF RICHES"Яeverse
DYEAR=1994
DGENRE=Pop
TTITLE0=TELEPHONE CRAZE
TTITLE1=EQUINOX
TTITLE2=RED and BLUE
TTITLE3=LAND OF RICHES-2
EXTD=YEAR: 1994
EXTT0=
EXTT1=
EXTT2=
EXTT3=
PLAYORDER=
